# AST/ASF file generated using VICON BodyLanguage
# -----------------------------------------------
:version 1.10
:name VICON
:units
  mass 1.0
  length 0.45
  angle deg
:documentation
   .ast/.asf automatically generated from VICON data using
   VICON BodyBuilder and BodyLanguage model FoxedUp or BRILLIANT.MOD
:root
   order TX TY TZ RX RY RZ
   axis XYZ
   position 0 0 0  
   orientation 0 0 0 
:bonedata
  begin
     id 1 
     name lhipjoint
     direction 0.611804 -0.747784 0.257906 
     length 2.29243 
     axis 0 0 0  XYZ
  end
  begin
     id 2 
     name lfemur
     direction 0.34202 -0.939693 0  
     length 7.31159  
     axis 0 0 20  XYZ
    dof rx ry rz
    limits (-160.0 20.0)
           (-70.0 70.0)
           (-60.0 70.0)
  end
  begin
     id 3 
     name ltibia
     direction 0.34202 -0.939693 0   
     length 7.33391   
     axis 0 0 20   XYZ
    dof rx
    limits (-10.0 170.0)
  end
  begin
     id 4 
     name lfoot
     direction 0.122263 -0.335914 0.933924   
     length 1.76083   
     axis -90 7.62852e-016 20   XYZ
    dof rx rz
    limits (-45.0 90.0)
           (-70.0 20.0)
  end
  begin
     id 5 
     name ltoes
     direction 1.53533e-011 -4.2177e-011 1   
     length 0.879206   
     axis -90 7.62852e-016 20   XYZ
    dof rx
    limits (-90.0 20.0)
  end
  begin
     id 6 
     name rhipjoint
     direction -0.646469 -0.721248 0.248754   
     length 2.37677  
     axis 0 0 0  XYZ 
  end
  begin
     id 7 
     name rfemur
     direction -0.34202 -0.939693 0   
     length 7.18623   
     axis 0 0 -20   XYZ
    dof rx ry rz
    limits (-160.0 20.0)
           (-70.0 70.0)
           (-70.0 60.0)
  end
  begin
     id 8 
     name rtibia
     direction -0.34202 -0.939693 0   
     length 7.36567   
     axis 0 0 -20   XYZ
    dof rx
    limits (-10.0 170.0)
 end
 begin
     id 9 
     name rfoot
     direction -0.126681 -0.348054 0.928876   
     length 1.71902  
     axis -90 -7.62852e-016 -20   XYZ
    dof rx rz
    limits (-45.0 90.0)
           (-20.0 70.0)
  end
  begin
     id 10 
     name rtoes
     direction -1.53551e-011 -4.21898e-011 1   
     length 0.857792   
     axis -90 -7.62852e-016 -20   XYZ
    dof rx
    limits (-90.0 20.0)
  end
  begin
     id 11 
     name lowerback
     direction 0.0106509 0.999778 0.0181844   
     length 2.07668   
     axis 0 0 0   XYZ
    dof rx ry rz
    limits (-20.0 45.0)
           (-30.0 30.0)
           (-30.0 30.0)
  end
  begin
     id 12 
     name upperback
     direction -0.00456018 0.999989 -0.000590935   
     length 2.08011   
     axis 0 0 0   XYZ
    dof rx ry rz
    limits (-20.0 45.0)
           (-30.0 30.0)
           (-30.0 30.0)
  end
  begin
     id 13 
     name thorax
     direction -0.00910382 0.999916 -0.00923765   
     length 2.07397   
     axis 0 0 0   XYZ
    dof rx ry rz
    limits (-20.0 45.0)
           (-30.0 30.0)
           (-30.0 30.0)
  end
  begin
     id 14 
     name lowerneck
     direction 0.00171967 0.99778 0.0665733   
     length 1.67556   
     axis 0 0 0   XYZ
    dof rx ry rz
    limits (-20.0 45.0)
           (-30.0 30.0)
           (-30.0 30.0)
  end
  begin
     id 15 
     name upperneck
     direction -0.0143166 0.991302 -0.130828   
     length 1.68462   
     axis 0 0 0   XYZ
    dof rx ry rz
    limits (-20.0 45.0)
           (-30.0 30.0)
           (-30.0 30.0)
  end
  begin
     id 16
     name head
     direction -0.00606378 0.998665 -0.0512995  
     length 1.69269  
     axis 0 0 0   XYZ
    dof rx ry rz
    limits (-20.0 45.0)
           (-30.0 30.0)
           (-30.0 30.0)
  end
  begin
     id 17 
     name lclavicle
     direction 0.9638 0.179341 0.197297  
     length 4.12888  
     axis 0 0 0   XYZ
    dof ry rz
    limits (-20.0 10.0)
           (0.0 20.0)
  end
  begin
     id 18 
     name lhumerus
     direction 1 -4.48972e-011 -2.47351e-027   
     length 5.01834   
     axis -180 -30 -90   XYZ
    dof rx ry rz
    limits (-60.0 90.0)
           (-90.0 90.0)
           (-90.0 90.0)
  end
  begin
     id 19
     name lradius
     direction 1 -4.48965e-011 1.51591e-026   
     length 3.4869   
     axis -180 -30 -90   XYZ
    dof rx
    limits (-10.0 170.0)
  end
  begin
     id 20
     name lwrist
     direction 1 -4.48957e-011 2.70032e-026   
     length 1.74345   
     axis -1.81515e-014 90 90   XYZ
    dof ry
    limits (-180.0 0.0)
 end
  begin
     id 21 
     name lhand
     direction 1 -4.48951e-011 5.40064e-026   
     length 0.76799   
     axis -3.44607e-014 90 90   XYZ
    dof rx rz
    limits (-90.0 90.0)
           (-45.0 45.0)
  end
  begin
     id 22 
     name lfingers
     direction 1 -4.48971e-011 1.08013e-025   
     length 0.619174   
     axis -6.89214e-014 90 90   XYZ
    dof rx
    limits (0.0 90.0)
  end
  begin
     id 23
     name lthumb
     direction 0.707107 -6.34931e-011 0.707107   
     length 0.889013   
     axis -90 45 2.85299e-015   XYZ
    dof rx rz
    limits (-45.0 45.0)
           (-45.0 45.0)
  end
  begin
     id 24 
     name rclavicle
     direction -0.961409 0.252588 0.109054   
     length 4.04305  
     axis 0 0 0   XYZ 
    dof ry rz
    limits (-10.0 20.0)
           (-20.0 0.0)
  end
  begin
     id 25 
     name rhumerus
     direction -1 -4.4897e-011 1.33872e-017  
     length 4.70164   
     axis -180 30 90   XYZ
    dof rx ry rz
    limits (-90.0 60.0)
           (-90.0 90.0)
           (-90.0 90.0)
  end
  begin
     id 26 
     name rradius
     direction -1 -4.48954e-011 1.83844e-026   
     length 3.49911   
     axis -180 30 90   XYZ
    dof rx
    limits (-10.0 170.0)
  end
  begin
     id 27 
     name rwrist
     direction -1 -4.49008e-011 2.70032e-026   
     length 1.74955   
     axis -1.81515e-014 -90 -90   XYZ
    dof ry
    limits (-180.0 0.0)
  end
  begin
     id 28
     name rhand
     direction -1 -4.48916e-011 5.40064e-026   
     length 0.739335   
     axis -3.44607e-014 -90 -90   XYZ
    dof rx rz
    limits (-90.0 90.0)
           (-45.0 45.0)
  end
  begin
     id 29
     name rfingers
     direction -1 -4.48987e-011 1.08013e-025   
     length 0.596071   
     axis -6.89214e-014 -90 -90   XYZ
    dof rx
    limits (0.0 90.0)
  end
  begin
     id 30
     name rthumb
     direction -0.707107 -6.34935e-011 0.707107   
     length 0.855843   
     axis -90 -45 -2.85299e-015   XYZ
    dof rx rz
    limits (-45.0 45.0)
           (-45.0 45.0)
  end
:hierarchy
  begin
    root lhipjoint rhipjoint lowerback
    lhipjoint lfemur
    lfemur ltibia
    ltibia lfoot
    lfoot ltoes
    rhipjoint rfemur
    rfemur rtibia
    rtibia rfoot
    rfoot rtoes
    lowerback upperback
    upperback thorax
    thorax lowerneck lclavicle rclavicle
    lowerneck upperneck
    upperneck head
    lclavicle lhumerus
    lhumerus lradius
    lradius lwrist
    lwrist lhand lthumb
    lhand lfingers
    rclavicle rhumerus
    rhumerus rradius
    rradius rwrist
    rwrist rhand rthumb
    rhand rfingers
  end

#!OML:ASF I:\salsa\salsa 7_09\Patient 1\Session 1\dancermale.ASF
:FULLY-SPECIFIED
:DEGREES
781
root -6.96414 16.5174 1.7808 367.318 108.046 358.17
lowerback -5.09976 0.0388395 2.11683
upperback -4.79988 0.185063 1.8188
thorax -2.08467 0.139607 0.686921
lowerneck -10.5126 1.59915 2.1343
upperneck 22.6067 4.20202 -7.51881
head 9.00934 1.62467 -2.42941
rclavicle 8.94531e-016 2.38542e-014
rhumerus -39.2332 7.80636 -95.9001
rradius 106.102
rwrist 3.79207
rhand -71.783 -22.4715
rfingers 7.12502
rthumb -43.2781 -46.6185
lclavicle 8.94531e-016 2.38542e-014
lhumerus 41.7196 -13.4841 42.7626
lradius 107.544
lwrist 38.8932
lhand -0.668381 41.7903
lfingers 7.12502
lthumb 24.95 430.181
rfemur 3.39557 2.57192 21.9002
rtibia 21.374
rfoot -28.265 -21.6567
rtoes -6.98754
lfemur -40.1302 -4.77555 -15.0251
ltibia 55.7231
lfoot -19.9178 11.1362
ltoes -7.55098
782
root -7.00534 16.5032 1.74324 368.203 108.399 359.296
lowerback -5.16572 -0.139534 2.24514
upperback -4.87158 -0.036771 2.2624
thorax -2.12448 0.0382152 1.0648
lowerneck -10.829 1.78509 1.93759
upperneck 22.6415 4.58813 -7.82834
head 9.10866 1.75187 -2.45693
rclavicle -3.61788e-014 -2.3059e-014
rhumerus -37.302 8.65918 -95.8117
rradius 105.346
rwrist 0.0080384
rhand -70.0031 -8.88482
rfingers 7.12502
rthumb -41.6117 -33.6036
lclavicle -3.61788e-014 -2.3059e-014
lhumerus 44.3626 -12.7218 40.7804
lradius 107.102
lwrist 40.0553
lhand -0.00708557 41.4335
lfingers 7.12502
lthumb 25.5836 429.735
rfemur 3.35019 2.20676 22.0678
rtibia 21.7319
rfoot -28.2429 -21.5293
rtoes -7.21856
lfemur -39.719 -4.22351 -14.8233
ltibia 57.7849
lfoot -19.7499 12.6674
ltoes -6.6843
783
root -7.03407 16.4938 1.69254 368.766 108.647 360.259
lowerback -5.09093 -0.283045 2.50047
upperback -4.92799 -0.216571 2.55529
thorax -2.22616 -0.0503487 1.21846
lowerneck -10.975 1.95494 1.8481
upperneck 22.5387 4.88916 -8.04313
head 9.12311 1.86197 -2.47894
rclavicle -3.36443e-014 1.27222e-014
rhumerus -35.3185 7.88454 -94.9877
rradius 104.493
rwrist -1.19865
rhand -68.1805 -4.16805
rfingers 7.12502
rthumb -39.8991 -29.4245
lclavicle -3.36443e-014 1.27222e-014
lhumerus 47.0817 -12.1255 38.6108
lradius 106.562
lwrist 41.5987
lhand 0.873401 41.315
lfingers 7.12502
lthumb 26.4267 429.493
rfemur 3.48921 1.77863 22.1258
rtibia 22.1549
rfoot -28.1978 -21.3614
rtoes -8.49395
lfemur -38.8433 -3.69697 -14.6113
ltibia 59.3794
lfoot -19.4612 13.957
ltoes -5.78178
784
root -7.05012 16.4858 1.62577 369.15 108.935 361.098
lowerback -5.02365 -0.357812 2.83109
upperback -5.02139 -0.307992 2.67766
thorax -2.36372 -0.100799 1.15785
lowerneck -10.8956 2.07418 2.10342
upperneck 22.4154 5.03781 -8.23104
head 9.08465 1.93875 -2.56942
rclavicle 3.33958e-014 -3.33958e-014
rhumerus -33.5828 6.83715 -94.6072
rradius 103.669
rwrist -1.77997
rhand -64.4393 -3.93605
rfingers 7.12502
rthumb -36.367 -30.1615
lclavicle 3.33958e-014 -3.33958e-014
lhumerus 49.9999 -11.9682 36.27
lradius 106.022
lwrist 43.1917
lhand 1.59257 41.0039
lfingers 7.12502
lthumb 27.1149 429.076
rfemur 3.83282 1.48982 22.1432
rtibia 22.4437
rfoot -28.3194 -20.965
rtoes -8.52686
lfemur -37.6237 -3.33486 -14.3354
ltibia 60.4972
lfoot -19.4274 14.6536
ltoes -2.6706
785
root -7.04892 16.4891 1.54724 367.874 109.119 359.953
lowerback -5.41246 -0.442992 2.4892
upperback -5.04555 -0.42631 2.61765
thorax -2.16825 -0.148846 1.28152
lowerneck -10.9743 2.21143 2.25668
upperneck 22.277 5.198 -8.31217
head 9.06724 2.0163 -2.60315
rclavicle 4.14466e-014 -3.73715e-014
rhumerus -31.7235 5.71458 -94.3121
rradius 102.284
rwrist -1.11658
rhand -61.0336 -5.73034
rfingers 7.12502
rthumb -33.1353 -32.7019
lclavicle 4.14466e-014 -3.73715e-014
lhumerus 53.0761 -11.9411 33.9102
lradius 105.337
lwrist 44.5642
lhand 1.99447 40.6248
lfingers 7.12502
lthumb 27.4993 428.637
rfemur 4.06622 1.55747 21.4504
rtibia 22.5878
rfoot -28.1948 -20.8817
rtoes -7.86918
lfemur -36.2528 -3.0461 -14.7619
ltibia 60.9851
lfoot -19.4689 15.0907
ltoes -0.535243
786
root -7.04352 16.5027 1.45114 366.14 109.23 358.165
lowerback -5.88868 -0.59842 1.99917
upperback -5.09246 -0.629799 2.58315
thorax -1.94415 -0.234654 1.50955
lowerneck -11.1294 2.40048 2.27162
upperneck 22.047 5.48196 -8.52638
head 9.04249 2.12651 -2.64285
rclavicle -7.79236e-014 -1.27222e-014
rhumerus -29.8351 4.86739 -93.9531
rradius 100.849
rwrist -1.31763
rhand -57.0253 -8.62087
rfingers 7.12502
rthumb -29.3156 -36.3299
lclavicle -7.79236e-014 -1.27222e-014
lhumerus 55.9939 -11.7494 31.6627
lradius 104.371
lwrist 45.6482
lhand 2.60115 40.4482
lfingers 7.12502
lthumb 28.0794 428.367
rfemur 4.14273 1.83428 20.5092
rtibia 22.8017
rfoot -27.9809 -20.9733
rtoes -8.00995
lfemur -34.7244 -2.67216 -15.5239
ltibia 60.7934
lfoot -19.3906 15.2205
ltoes 0.472841
787
root -7.02995 16.5194 1.34024 364.73 109.27 356.636
lowerback -6.47235 -0.781296 1.61803
upperback -5.14748 -0.867834 2.61836
thorax -1.66726 -0.338642 1.74351
lowerneck -11.2252 2.6162 2.47829
upperneck 21.7643 5.82429 -9.00272
head 9.00663 2.25813 -2.79812
rclavicle -3.66758e-014 -2.06736e-014
rhumerus -27.9545 4.36847 -93.5833
rradius 98.3213
rwrist -2.6293
rhand -54.7314 -4.92183
rfingers 7.12502
rthumb -27.1232 -32.9931
lclavicle -3.66758e-014 -2.06736e-014
lhumerus 58.6649 -11.2551 29.5178
lradius 103.314
lwrist 46.5463
lhand 3.47304 40.6243
lfingers 7.12502
lthumb 28.9125 428.403
rfemur 4.0695 2.23058 19.6425
rtibia 23.3058
rfoot -27.8666 -21.0508
rtoes -7.9847
lfemur -33.0283 -2.19629 -16.2418
ltibia 59.8745
lfoot -19.3088 14.8389
ltoes 1.31498
788
root -7.01245 16.5349 1.2176 363.299 109.235 355.284
lowerback -6.81548 -0.977093 1.35545
upperback -5.15927 -1.12348 2.65505
thorax -1.47833 -0.457715 1.91113
lowerneck -11.2954 2.83684 2.68925
upperneck 21.5817 6.16597 -9.40062
head 9.0004 2.39763 -2.92818
rclavicle 1.75924e-014 -4.77083e-015
rhumerus -26.0835 4.15621 -93.1733
rradius 95.6708
rwrist -4.25242
rhand -52.143 -3.37054
rfingers 7.12502
rthumb -24.6446 -31.8038
lclavicle 1.75924e-014 -4.77083e-015
lhumerus 61.1392 -10.6155 27.4235
lradius 102.094
lwrist 47.337
lhand 4.26399 40.987
lfingers 7.12502
lthumb 29.6677 428.634
rfemur 4.0844 2.55001 18.7468
rtibia 24.0926
rfoot -27.644 -21.1166
rtoes -8.06411
lfemur -30.8984 -1.6688 -16.9618
ltibia 58.2671
lfoot -19.4947 14.3258
ltoes -2.27195
789
root -6.9946 16.5507 1.0849 361.936 109.219 353.995
lowerback -7.032 -1.17279 1.24286
upperback -5.21901 -1.37973 2.62696
thorax -1.41229 -0.582166 1.92823
lowerneck -11.3641 3.05145 2.88391
upperneck 21.4375 6.45283 -9.59765
head 8.99728 2.52738 -2.99308
rclavicle -2.70347e-014 -9.54166e-015
rhumerus -24.215 4.12635 -92.7579
rradius 92.7455
rwrist -5.77989
rhand -49.1073 -2.57422
rfingers 7.12502
rthumb -21.732 -31.3743
lclavicle -2.70347e-014 -9.54166e-015
lhumerus 63.638 -10.013 25.3268
lradius 100.419
lwrist 48.0217
lhand 5.10205 41.1213
lfingers 7.12502
lthumb 30.4673 428.623
rfemur 3.90459 2.6746 17.7543
rtibia 25.1633
rfoot -27.2343 -20.9399
rtoes -9.50363
lfemur -28.6448 -1.06774 -17.7571
ltibia 55.6137
lfoot -21.0472 14.782
ltoes -8.11138
790
root -6.97246 16.5602 0.948623 360.576 109.069 352.784
lowerback -7.0318 -1.47789 0.776943
upperback -5.33201 -1.74816 2.9547
thorax -1.49673 -0.74488 2.50916
lowerneck -11.2759 3.35073 2.65212
upperneck 21.1916 6.96178 -9.84742
head 8.93758 2.73521 -2.97703
rclavicle 1.16289e-014 -6.67916e-014
rhumerus -22.5261 3.24498 -92.5686
rradius 89.6967
rwrist -5.70879
rhand -44.7374 -1.43507
rfingers 7.12502
rthumb -17.531 -30.6646
lclavicle 1.16289e-014 -6.67916e-014
lhumerus 65.5448 -9.33804 23.6606
lradius 98.3666
lwrist 48.4272
lhand 6.06263 41.2043
lfingers 7.12502
lthumb 31.383 428.532
rfemur 3.57051 2.90766 16.7833
rtibia 26.6149
rfoot -26.7265 -20.7235
rtoes -11.6127
lfemur -26.2604 0.193013 -18.6531
ltibia 52.1464
lfoot -21.8898 16.4191
ltoes -17.8915
791
root -6.95011 16.5753 0.804805 359.406 108.83 351.662
lowerback -7.18958 -1.52312 0.746764
upperback -5.4174 -1.80209 2.96054
thorax -1.49511 -0.768147 2.52683
lowerneck -11.2593 3.49239 2.66995
upperneck 21.2002 7.15774 -9.83983
head 8.95219 2.83034 -2.95446
rclavicle 5.1684e-015 1.43125e-014
rhumerus -20.7272 1.90423 -92.4105
rradius 86.4013
rwrist -5.61354
rhand -40.2616 -0.240668
rfingers 7.12502
rthumb -13.22 -29.8015
lclavicle 5.1684e-015 1.43125e-014
lhumerus 67.8776 -8.82441 21.8748
lradius 96.25
lwrist 48.4306
lhand 7.11595 41.3489
lfingers 7.12502
lthumb 32.3861 428.477
rfemur 2.87751 3.21643 15.8385
rtibia 28.4848
rfoot -25.8611 -20.6123
rtoes -12.9786
lfemur -24.0168 1.96649 -19.5156
ltibia 48.7176
lfoot -23.1704 16.8742
ltoes -22.3185
792
root -6.93114 16.6134 0.649687 358.555 109.057 350.431
lowerback -7.6665 -1.89101 0.398063
upperback -5.6565 -2.25165 3.26132
thorax -1.43874 -0.967914 2.99838
lowerneck -10.9818 3.74755 2.75261
upperneck 20.9135 7.59324 -10.3199
head 8.85846 3.01719 -3.08211
rclavicle 3.04141e-014 3.81667e-014
rhumerus -18.8477 2.24814 -91.678
rradius 83.2686
rwrist -7.09415
rhand -38.0098 1.18769
rfingers 7.12502
rthumb -11.0487 -28.5015
lclavicle 3.04141e-014 3.81667e-014
lhumerus 69.3948 -8.16782 20.4034
lradius 94.1083
lwrist 48.1588
lhand 8.0696 41.5626
lfingers 7.12502
lthumb 33.2932 428.5
rfemur 1.60142 3.05463 14.7658
rtibia 30.74
rfoot -24.2323 -20.3028
rtoes -13.2487
lfemur -22.5152 3.48095 -20.534
ltibia 45.7894
lfoot -24.5551 16.1317
ltoes -21.2577
793
root -6.90776 16.6608 0.497827 358.329 109.703 349.751
lowerback -8.17734 -2.36451 0.147837
upperback -5.96116 -2.83685 3.57899
thorax -1.41935 -1.23407 3.41891
lowerneck -10.8515 3.94431 2.68162
upperneck 20.9472 7.95418 -10.5266
head 8.88092 3.17176 -3.09995
rclavicle -5.36719e-015 3.65764e-014
rhumerus -17.1051 2.43582 -91.0808
rradius 80.6531
rwrist -9.49027
rhand -35.6069 1.27476
rfingers 7.12502
rthumb -8.73042 -28.5247
lclavicle -5.36719e-015 3.65764e-014
lhumerus 70.7958 -7.71624 19.0493
lradius 91.9263
lwrist 48.1461
lhand 9.16765 42.2239
lfingers 7.12502
lthumb 34.3365 428.932
rfemur 0.0134385 2.62382 13.9476
rtibia 33.5198
rfoot -22.073 -19.9607
rtoes -12.0018
lfemur -21.5251 4.65836 -21.4115
ltibia 43.4483
lfoot -25.545 15.2672
ltoes -18.9097
794
root -6.9177 16.7021 0.344137 358.522 109.777 349.228
lowerback -8.46136 -2.58416 0.142289
upperback -6.37941 -3.0789 3.96371
thorax -1.66651 -1.32579 3.80598
lowerneck -10.8228 4.10571 2.4569
upperneck 21.1021 8.32321 -10.7469
head 8.96084 3.31248 -3.09441
rclavicle -2.5842e-014 -1.43125e-014
rhumerus -15.5672 2.12157 -90.5745
rradius 78.4528
rwrist -11.9666
rhand -32.5955 1.20147
rfingers 7.12502
rthumb -5.8237 -28.6985
lclavicle -2.5842e-014 -1.43125e-014
lhumerus 72.0853 -7.37958 18.0631
lradius 89.6305
lwrist 48.1902
lhand 10.9645 43.4167
lfingers 7.12502
lthumb 36.0405 429.723
rfemur -3.00749 2.39997 13.0827
rtibia 37.7232
rfoot -19.542 -19.4024
rtoes -10.0298
lfemur -21.2878 5.69879 -22.239
ltibia 41.6978
lfoot -26.1296 14.7926
ltoes -17.983
